<svg xmlns="http://www.w3.org/2000/svg" version="1.0" width="1000.000000pt" height="1000.000000pt" viewBox="0 0 1000.000000 1000.000000" preserveAspectRatio="xMidYMid meet">

<g transform="translate(0.000000,1000.000000) scale(0.100000,-0.100000)" fill="#580ae3" stroke="none">
<path d="M4731 9469 c-1782 -102 -3362 -1209 -4075 -2857 -641 -1480 -472 -3211 443 -4549 134 -196 415 -543 440 -543 4 0 57 102 118 228 61 125 344 704 628 1287 629 1289 1475 3027 2028 4165 466 961 1079 2252 1072 2259 -8 7 -269 20 -395 19 -63 -1 -180 -5 -259 -9z m69 -656 c0 -5 -71 -159 -158 -343 l-159 -334 -94 -17 c-1247 -221 -2279 -1153 -2638 -2383 -249 -851 -157 -1785 252 -2558 l51 -98 -94 -182 c-52 -101 -129 -250 -171 -332 l-77 -150 -84 130 c-326 501 -531 1043 -618 1637 -65 444 -59 802 21 1297 103 643 406 1310 845 1860 126 157 403 438 555 563 579 472 1259 777 1959 877 220 31 410 46 410 33z" fill="#580ae3"/>
<path d="M6890 6719 c0 -1386 -4 -2369 -9 -2367 -7 2 -843 789 -1103 1039 l-48 45 0 1214 c0 667 -3 1210 -7 1207 -3 -4 -315 -741 -694 -1639 -521 -1239 -684 -1635 -674 -1641 8 -4 319 -6 692 -5 l678 3 2 252 c1 139 6 253 10 253 22 -2 1304 -1203 1293 -1212 -32 -28 -449 -351 -720 -559 -520 -400 -612 -469 -622 -463 -4 3 -8 124 -8 270 l0 264 -917 0 -918 0 -604 -1364 c-332 -751 -604 -1368 -603 -1373 0 -23 394 -217 637 -313 1012 -401 2160 -434 3209 -94 1007 328 1892 1003 2481 1894 624 944 888 2082 744 3210 -185 1454 -1029 2733 -2299 3485 -108 64 -399 214 -482 248 l-38 16 0 -2370z m417 1345 c368 -269 703 -607 945 -954 279 -401 506 -910 626 -1410 114 -472 137 -935 72 -1445 -140 -1091 -663 -2011 -1540 -2705 -561 -444 -1234 -717 -2000 -812 -166 -21 -729 -17 -905 5 -297 38 -645 122 -897 216 -195 72 -498 211 -498 229 -1 18 275 572 285 572 6 0 62 -25 124 -56 913 -451 2034 -445 2951 16 482 242 949 646 1255 1085 308 442 514 978 591 1540 25 182 26 654 0 840 -89 661 -327 1223 -734 1736 -37 46 -144 163 -239 260 l-173 176 0 396 c0 233 4 397 9 397 5 0 63 -39 128 -86z m-452 -5109 l0 -495 -578 -2 c-317 -2 -577 -1 -577 2 0 15 1133 990 1150 990 3 0 5 -223 5 -495z" fill="#580ae3"/>
</g>
</svg>